# xmcd CD database file
#
# Track frame offsets:
#	150
#	13611
#	26111
#	36457
#	47714
#	57565
#	71050
#	85674
#	95028
#	112020
#	126139
#	142428
#	156666
#	168875
#	182093
#	195038
#	209816
#	222483
#	237679
#	252219
#	267422
#	283605
#	298473
#	310422
#	321647
#	335114
#
# Disc length: 4639 seconds
#
# Revision: 1
# Processed by: cddbd v1.5.2PL0 Copyright (c) Steve Scherf et al.
# Submitted via: CDex 1.51
#
DISCID=bb121d1a
DTITLE=Various Artist - ZM-VS-CC-4
DYEAR=1900
DGENRE=Blues
TTITLE0=Dickie Valentine - The Finger Of Suspicion
TTITLE1=Dickie Valentine - I Wonder
TTITLE2=Dickie Valentine - Christmas Alphabet
TTITLE3=Dickie Valentine - Mr Sandman
TTITLE4=Dickie Valentine - Old Piano Rag
TTITLE5=Ronnie Hilton - A Windmill In Old Amsterdam
TTITLE6=Ronnie Hilton - No Other Love
TTITLE7=Matt Monro - On A Clear Day
TTITLE8=Matt Monro - On Days Like These
TTITLE9=Matt Monro - My Kind Of Girl
TTITLE10=Matt Monro - Softly As You Leave
TTITLE11=Matt Monro - Who Can I Turn To
TTITLE12=David Whitfield - Answer Me
TTITLE13=Don Cornell - Hold My Hand
TTITLE14=Vic Damone - On The Street Where You live
TTITLE15=Eddie Fisher - I'm Walking Behind You
TTITLE16=Eddie Fisher - Outside Of Heaven
TTITLE17=Al Martino - Here In My Heart
TTITLE18=Engelbert Humperdinck - Am I That Easy To Forget
TTITLE19=Engelbert Humperdinck - Les Bicyclettes De Belsize
TTITLE20=Engelbert Humperdinck - Spanish Eyes
TTITLE21=Engelbert Humperdinck - The Way It Used To Be
TTITLE22=Dean Martin - Innamorata (sweetheart)
TTITLE23=Dean Martin - Kiss
TTITLE24=Dean Martin - Standing On The Corner
TTITLE25=Dean Martin - Under The Bridges Of Paris
EXTD=
EXTT0=
EXTT1=
EXTT2=
EXTT3=
EXTT4=
EXTT5=
EXTT6=
EXTT7=
EXTT8=
EXTT9=
EXTT10=
EXTT11=
EXTT12=
EXTT13=
EXTT14=
EXTT15=
EXTT16=
EXTT17=
EXTT18=
EXTT19=
EXTT20=
EXTT21=
EXTT22=
EXTT23=
EXTT24=
EXTT25=
PLAYORDER=
